<svg id="Logo_Black" data-name="Logo Black" xmlns="http://www.w3.org/2000/svg" width="1107.31" height="418.69" viewBox="0 0 1107.31 418.69">
  <title>Artboard 1</title>
  <g>
    <path d="M176.21,237.28c-10,0-14.22-6.21-14.22-18.62V162.39h33.44V146.57H162v-33H139l-8,33H113.53v15.82h16.22v62.87c0,19.82,9.41,33,36,33,14,0,26.83-7.41,35-16.42l-5.41-11.41C189.22,235.67,183.61,237.28,176.21,237.28Z"/>
    <path d="M753.89,237.28c-10,0-14.22-6.21-14.22-18.62V162.39h33.44V146.57H739.67v-33h-23l-8,33H691.22v15.82h16.22v62.87c0,19.82,9.41,33,36,33,14,0,26.83-7.41,35-16.42l-5.41-11.41C766.9,235.67,761.3,237.28,753.89,237.28Z"/>
    <path d="M972,133.16c-10.81,0-19.62,8-19.62,18,0,8,6,14.42,13.82,14.42a14.07,14.07,0,0,0,9.41-3.6c1,17-8.41,42-32.64,68.28l-15.62-83.7H885.66v12.21c9.41,1.8,11.41,3.6,14.42,17.82l15.82,75.69c-23.83,16.22-35.84,28.43-35.84,41,0,8.21,4.59,14.82,13,14.82,13.22,0,25.25-14,34.46-46.85,46.65-37.44,66.28-71.88,66.28-101.12C993.78,143.57,985.57,133.16,972,133.16Z"/>
    <path d="M306.6,227.87V183c0-22.63-15.42-38.44-44.85-38.44-25.43,0-45.45,9.21-45.45,26.43,0,8.41,5.81,14.82,14.42,14.82,8.21,0,14.82-5.81,14.82-14.42,0-4.61-1.6-8-4.2-10.21a36.22,36.22,0,0,1,11.61-1.8c15,0,21.62,8.21,21.62,22v11.81c-45.65-3-64.88,10.81-64.88,33.64,0,18,13.22,31.24,35.44,31.24,13.62,0,25.63-5.81,32.44-15l5.81,13H320V243.88C310,242.48,306.6,239.48,306.6,227.87Zm-32-2.8c0,7.41-7.21,13.62-16.22,13.62-10.21,0-15.62-6-15.62-15,0-12.41,6.81-19.42,31.84-17.82Z"/>
    <path d="M404.71,145c-15.62,0-28.43,6.41-36,19.62l.8-18H325.82v12.21c10,1.4,13.42,4.61,13.42,16.22V290.14l-14.62,3.4v11.61H389.3V293.54l-17.62-3.6V251.49c6.41,3.6,14.62,6,25.43,6,31.44,0,54.86-23.43,54.86-59.27C452,164.39,432.34,145,404.71,145ZM389.9,240.48a28.31,28.31,0,0,1-18.22-6.21V195.83c0-19.22,8.61-30.84,23.43-30.84,14.22,0,22.83,12.81,22.83,34.44C417.93,226.06,406.92,240.48,389.9,240.48Z"/>
    <path d="M860,144.57c-11.81,0-23,8.81-28.83,24.23l.8-22.23H788.9v12.21c10,1.4,13.42,4.61,13.42,16.22v66.08l-14.62,3.4V256.1h64.68V244.49l-17.62-3.6V194.43c0-13.42,5.21-23.23,13.22-27.63a14.17,14.17,0,0,0,14,11c9.21,0,15.62-7.41,15.62-16.22S871.6,144.57,860,144.57Z"/>
    <path d="M644,186.62c-16.82-3.4-26-4.2-26-14,0-7.21,5.81-12.81,16.62-12.81,13.82,0,22,5.81,25.63,17.82h11.21V151c-9.61-3.8-23.43-6.41-36-6.41-29.43,0-46.25,13.42-46.25,36.24,0,26,19.42,30.44,36.64,33.84,16.82,3.4,26,4.2,26,14,0,8.81-7.61,14.22-20.22,14.22-17.22,0-25-7.21-29.83-21.83h-11v27.43c7,4.2,21,9.61,40,9.61,31.24,0,49.86-13.82,49.86-37.64C680.67,194.43,661.25,190,644,186.62Z"/>
    <path d="M521.85,144.57c-35.24,0-56.67,23.83-56.67,57.87,0,32.44,21.42,55.66,56.67,55.66,23.23,0,38.24-10.61,47.66-25l-7.81-7.41c-8.61,8.41-18.42,12.61-28.23,12.61-20,0-32.24-12.81-34.24-36h71.08C575.11,176.61,562.3,144.57,521.85,144.57ZM499,188.22c1.6-19.82,10.81-28,21.42-28,11.21,0,18.42,9,18.62,28Z"/>
  </g>
</svg>
